<svg width="26" height="26" viewBox="0 0 26 26" fill="none" xmlns="http://www.w3.org/2000/svg">
<mask id="mask0_1210_11971" style="mask-type:alpha" maskUnits="userSpaceOnUse" x="0" y="0" width="26" height="26">
<rect width="26" height="26" fill="#D9D9D9"/>
</mask>
<g mask="url(#mask0_1210_11971)">
<path d="M13 19.5C14.8056 19.5 16.3403 18.8681 17.6042 17.6042C18.8681 16.3403 19.5 14.8056 19.5 13C19.5 11.1944 18.8681 9.65972 17.6042 8.39583C16.3403 7.13194 14.8056 6.5 13 6.5C11.1944 6.5 9.65972 7.13194 8.39583 8.39583C7.13194 9.65972 6.5 11.1944 6.5 13C6.5 14.8056 7.13194 16.3403 8.39583 17.6042C9.65972 18.8681 11.1944 19.5 13 19.5ZM13 17.3333C12.4764 17.3333 11.9708 17.2385 11.4833 17.049C10.9958 16.8594 10.5535 16.5931 10.1563 16.25H15.8438C15.4465 16.5931 15.0042 16.8594 14.5167 17.049C14.0292 17.2385 13.5236 17.3333 13 17.3333ZM9.2625 15.1667C9.11806 14.9139 9.00069 14.6521 8.91042 14.3813C8.82014 14.1104 8.75694 13.8306 8.72083 13.5417H17.2792C17.2431 13.8306 17.1799 14.1104 17.0896 14.3813C16.9993 14.6521 16.8819 14.9139 16.7375 15.1667H9.2625ZM8.72083 12.4583C8.75694 12.1694 8.82014 11.8896 8.91042 11.6188C9.00069 11.3479 9.11806 11.0861 9.2625 10.8333H16.7375C16.8819 11.0861 16.9993 11.3479 17.0896 11.6188C17.1799 11.8896 17.2431 12.1694 17.2792 12.4583H8.72083ZM10.1563 9.75C10.5535 9.40694 10.9958 9.14063 11.4833 8.95104C11.9708 8.76146 12.4764 8.66667 13 8.66667C13.5236 8.66667 14.0292 8.76146 14.5167 8.95104C15.0042 9.14063 15.4465 9.40694 15.8438 9.75H10.1563ZM5.41667 22.75C4.82083 22.75 4.31076 22.5378 3.88646 22.1135C3.46215 21.6892 3.25 21.1792 3.25 20.5833V5.41667C3.25 4.82083 3.46215 4.31076 3.88646 3.88646C4.31076 3.46215 4.82083 3.25 5.41667 3.25H20.5833C21.1792 3.25 21.6892 3.46215 22.1135 3.88646C22.5378 4.31076 22.75 4.82083 22.75 5.41667V20.5833C22.75 21.1792 22.5378 21.6892 22.1135 22.1135C21.6892 22.5378 21.1792 22.75 20.5833 22.75H5.41667ZM5.41667 20.5833H20.5833V5.41667H5.41667V20.5833Z" fill="#713D77"/>
</g>
</svg>
