<svg width="26" height="24" viewBox="0 0 26 24" fill="none" xmlns="http://www.w3.org/2000/svg">
<mask id="mask0_599_8668" style="mask-type:alpha" maskUnits="userSpaceOnUse" x="0" y="0" width="26" height="24">
<rect width="26" height="24" fill="#D9D9D9"/>
</mask>
<g mask="url(#mask0_599_8668)">
<path d="M1.08325 21L12.9999 2L24.9166 21H1.08325ZM4.82075 19H21.1791L12.9999 6L4.82075 19ZM12.9999 18C13.3069 18 13.5642 17.9042 13.7718 17.7125C13.9794 17.5208 14.0833 17.2833 14.0833 17C14.0833 16.7167 13.9794 16.4792 13.7718 16.2875C13.5642 16.0958 13.3069 16 12.9999 16C12.693 16 12.4357 16.0958 12.228 16.2875C12.0204 16.4792 11.9166 16.7167 11.9166 17C11.9166 17.2833 12.0204 17.5208 12.228 17.7125C12.4357 17.9042 12.693 18 12.9999 18ZM11.9166 15H14.0833V10H11.9166V15Z" fill="#E57D23"/>
</g>
</svg>
