<svg width="26" height="24" viewBox="0 0 26 24" fill="none" xmlns="http://www.w3.org/2000/svg">
<mask id="mask0_599_8669" style="mask-type:alpha" maskUnits="userSpaceOnUse" x="0" y="0" width="26" height="24">
<rect width="26" height="24" fill="#D9D9D9"/>
</mask>
<g mask="url(#mask0_599_8669)">
<path d="M12.9999 16C13.3069 16 13.5642 15.9042 13.7718 15.7125C13.9794 15.5208 14.0833 15.2833 14.0833 15C14.0833 14.7167 13.9794 14.4792 13.7718 14.2875C13.5642 14.0958 13.3069 14 12.9999 14C12.693 14 12.4357 14.0958 12.228 14.2875C12.0204 14.4792 11.9166 14.7167 11.9166 15C11.9166 15.2833 12.0204 15.5208 12.228 15.7125C12.4357 15.9042 12.693 16 12.9999 16ZM11.9166 12H14.0833V7H11.9166V12ZM12.9999 22C10.4902 21.4167 8.41832 20.0875 6.78429 18.0125C5.15027 15.9375 4.33325 13.6333 4.33325 11.1V5L12.9999 2L21.6666 5V11.1C21.6666 13.6333 20.8496 15.9375 19.2155 18.0125C17.5815 20.0875 15.5096 21.4167 12.9999 22ZM12.9999 19.9C14.8777 19.35 16.4305 18.25 17.6583 16.6C18.886 14.95 19.4999 13.1167 19.4999 11.1V6.375L12.9999 4.125L6.49992 6.375V11.1C6.49992 13.1167 7.11381 14.95 8.34159 16.6C9.56936 18.25 11.1221 19.35 12.9999 19.9Z" fill="#FECA45"/>
</g>
</svg>
