<svg width="27" height="27" viewBox="0 0 27 27" fill="none" xmlns="http://www.w3.org/2000/svg">
<mask id="mask0_599_8667" style="mask-type:alpha" maskUnits="userSpaceOnUse" x="0" y="0" width="27" height="27">
<rect width="27" height="27" fill="#D9D9D9"/>
</mask>
<g mask="url(#mask0_599_8667)">
<path d="M6.58125 13.5L6.24375 11.8125C6.01875 11.7188 5.80781 11.6203 5.61094 11.5172C5.41406 11.4141 5.2125 11.2875 5.00625 11.1375L3.375 11.6438L2.25 9.73125L3.54375 8.60625C3.50625 8.3625 3.4875 8.11875 3.4875 7.875C3.4875 7.63125 3.50625 7.3875 3.54375 7.14375L2.25 6.01875L3.375 4.10625L5.00625 4.6125C5.2125 4.4625 5.41406 4.33594 5.61094 4.23281C5.80781 4.12969 6.01875 4.03125 6.24375 3.9375L6.58125 2.25H8.83125L9.16875 3.9375C9.39375 4.03125 9.60469 4.12969 9.80156 4.23281C9.99844 4.33594 10.2 4.4625 10.4063 4.6125L12.0375 4.10625L13.1625 6.01875L11.8688 7.14375C11.9063 7.3875 11.925 7.63125 11.925 7.875C11.925 8.11875 11.9063 8.3625 11.8688 8.60625L13.1625 9.73125L12.0375 11.6438L10.4063 11.1375C10.2 11.2875 9.99844 11.4141 9.80156 11.5172C9.60469 11.6203 9.39375 11.7188 9.16875 11.8125L8.83125 13.5H6.58125ZM7.70625 10.125C8.325 10.125 8.85469 9.90469 9.29531 9.46406C9.73594 9.02344 9.95625 8.49375 9.95625 7.875C9.95625 7.25625 9.73594 6.72656 9.29531 6.28594C8.85469 5.84531 8.325 5.625 7.70625 5.625C7.0875 5.625 6.55781 5.84531 6.11719 6.28594C5.67656 6.72656 5.45625 7.25625 5.45625 7.875C5.45625 8.49375 5.67656 9.02344 6.11719 9.46406C6.55781 9.90469 7.0875 10.125 7.70625 10.125ZM16.65 25.875L16.1438 23.5125C15.825 23.4 15.5297 23.2641 15.2578 23.1047C14.9859 22.9453 14.7188 22.7625 14.4563 22.5563L12.2063 23.2875L10.6313 20.5875L12.4313 19.0125C12.3938 18.675 12.375 18.3375 12.375 18C12.375 17.6625 12.3938 17.325 12.4313 16.9875L10.6313 15.4125L12.2063 12.7125L14.4563 13.4437C14.7188 13.2375 14.9859 13.0547 15.2578 12.8953C15.5297 12.7359 15.825 12.6 16.1438 12.4875L16.65 10.125H19.8L20.3063 12.4875C20.625 12.6 20.9203 12.7359 21.1922 12.8953C21.4641 13.0547 21.7313 13.2375 21.9938 13.4437L24.2438 12.7125L25.8188 15.4125L24.0188 16.9875C24.0563 17.325 24.075 17.6625 24.075 18C24.075 18.3375 24.0563 18.675 24.0188 19.0125L25.8188 20.5875L24.2438 23.2875L21.9938 22.5563C21.7313 22.7625 21.4641 22.9453 21.1922 23.1047C20.9203 23.2641 20.625 23.4 20.3063 23.5125L19.8 25.875H16.65ZM18.225 21.375C19.1625 21.375 19.9594 21.0469 20.6156 20.3906C21.2719 19.7344 21.6 18.9375 21.6 18C21.6 17.0625 21.2719 16.2656 20.6156 15.6094C19.9594 14.9531 19.1625 14.625 18.225 14.625C17.2875 14.625 16.4906 14.9531 15.8344 15.6094C15.1781 16.2656 14.85 17.0625 14.85 18C14.85 18.9375 15.1781 19.7344 15.8344 20.3906C16.4906 21.0469 17.2875 21.375 18.225 21.375Z" fill="#1665DC"/>
</g>
</svg>
